<svg width="384" height="211" viewBox="0 0 384 211" fill="none" xmlns="http://www.w3.org/2000/svg">
<g clip-path="url(#clip0_3219_272)">
<rect width="384" height="211" rx="12" fill="#5E6278"/>
<path d="M70.6772 94.2535C41.3645 68.8024 24.1587 68.9379 -8 94.2535V272.253H389.5V94.2535C378.658 84.2129 372.958 84.9338 363.274 94.2535L336.534 120.254C318.172 138.381 307.282 138.127 286.654 120.254L248.087 82.7535C228.322 66.8795 217.826 67.2861 200.263 82.7535L166.838 115.254C139.39 142.303 123.197 144.41 92.2749 115.254L70.6772 94.2535Z" fill="#3F4254" stroke="#464E5F" stroke-width="3"/>
<path d="M-7.5 129.5C24.6587 104.184 41.8645 104.049 71.1772 129.5L92.7749 150.5C123.697 179.657 139.89 177.549 167.338 150.5L200.763 118C218.326 102.533 228.822 102.126 248.587 118L287.154 155.5C307.782 173.374 318.671 173.627 337.034 155.5L363.774 129.5C373.458 120.18 379.158 119.46 390 129.5" stroke="#80808F" stroke-width="4"/>
</g>
<defs>
<clipPath id="clip0_3219_272">
<rect width="384" height="211" rx="12" fill="white"/>
</clipPath>
</defs>
</svg>
