<svg width="25" height="24" viewBox="0 0 25 24" fill="none" xmlns="http://www.w3.org/2000/svg">
<path d="M9.6792 20H6.6792C5.61833 20 4.60092 19.5786 3.85077 18.8284C3.10063 18.0783 2.6792 17.0609 2.6792 16V7C2.6792 5.93913 3.10063 4.92172 3.85077 4.17157C4.60092 3.42143 5.61833 3 6.6792 3H17.6792C18.7401 3 19.7575 3.42143 20.5076 4.17157C21.2578 4.92172 21.6792 5.93913 21.6792 7V10M8.6792 2V4M15.6792 2V4M2.6792 8H21.6792M19.1792 15.643L17.6792 17.143" stroke="#5E6278" stroke-width="2" stroke-linecap="round" stroke-linejoin="round"/>
<path d="M17.6792 22C20.4406 22 22.6792 19.7614 22.6792 17C22.6792 14.2386 20.4406 12 17.6792 12C14.9178 12 12.6792 14.2386 12.6792 17C12.6792 19.7614 14.9178 22 17.6792 22Z" stroke="#5E6278" stroke-width="2" stroke-linecap="round" stroke-linejoin="round"/>
</svg>
