<svg width="30" height="29" viewBox="0 0 30 29" fill="none" xmlns="http://www.w3.org/2000/svg">
<g clip-path="url(#clip0_3382_2812)" filter="url(#filter0_d_3382_2812)">
<path d="M22.5537 0.280029H6.80371C5.35599 0.280029 4.17871 1.39452 4.17871 2.76503V13.5334C4.17871 14.9039 5.35599 16.0184 6.80371 16.0184H11.9527C11.7299 16.968 11.1349 17.8117 10.2595 18.3642L10.039 18.5034H8.55371C8.07071 18.5034 7.67871 18.8745 7.67871 19.3317C7.67871 19.7889 8.07071 20.16 8.55371 20.16H20.8037C21.2867 20.16 21.6787 19.7889 21.6787 19.3317C21.6787 18.8745 21.2867 18.5034 20.8037 18.5034H19.3184L19.0979 18.3642C18.2225 17.8117 17.6276 16.968 17.4048 16.0184H22.5537C24.0014 16.0184 25.1787 14.9039 25.1787 13.5334V2.76503C25.1787 1.39452 24.0014 0.280029 22.5537 0.280029ZM16.7438 18.5034H12.6136C13.1968 17.7798 13.5833 16.9292 13.7302 16.0184H15.6276C15.7742 16.9292 16.1606 17.7798 16.7438 18.5034ZM23.4287 13.5334C23.4287 13.9902 23.0363 14.3617 22.5537 14.3617H6.80371C6.32114 14.3617 5.92871 13.9902 5.92871 13.5334V2.76503C5.92871 2.30819 6.32114 1.9367 6.80371 1.9367H22.5537C23.0363 1.9367 23.4287 2.30819 23.4287 2.76503V13.5334Z" fill="#5E6278"/>
<path d="M19.3089 5.07858L15.9901 8.22043L14.4212 6.73525C14.0799 6.41188 13.5253 6.41188 13.1839 6.73525L8.80892 10.8769C8.46734 11.2005 8.46734 11.7247 8.80892 12.0482C8.97961 12.2102 9.20348 12.2909 9.42757 12.2909C9.65166 12.2909 9.87554 12.2102 10.0462 12.0482L13.8026 8.49222L15.3714 9.9774C15.7128 10.3008 16.2674 10.3008 16.6087 9.9774L20.5462 6.2499C20.8878 5.92633 20.8878 5.40215 20.5462 5.07858C20.2049 4.75522 19.6503 4.75522 19.3089 5.07858Z" fill="#5E6278"/>
</g>
<defs>
<filter id="filter0_d_3382_2812" x="0.178711" y="0.280029" width="29" height="27.88" filterUnits="userSpaceOnUse" color-interpolation-filters="sRGB">
<feFlood flood-opacity="0" result="BackgroundImageFix"/>
<feColorMatrix in="SourceAlpha" type="matrix" values="0 0 0 0 0 0 0 0 0 0 0 0 0 0 0 0 0 0 127 0" result="hardAlpha"/>
<feOffset dy="4"/>
<feGaussianBlur stdDeviation="2"/>
<feComposite in2="hardAlpha" operator="out"/>
<feColorMatrix type="matrix" values="0 0 0 0 0 0 0 0 0 0 0 0 0 0 0 0 0 0 0.25 0"/>
<feBlend mode="normal" in2="BackgroundImageFix" result="effect1_dropShadow_3382_2812"/>
<feBlend mode="normal" in="SourceGraphic" in2="effect1_dropShadow_3382_2812" result="shape"/>
</filter>
<clipPath id="clip0_3382_2812">
<rect width="21" height="19.88" fill="white" transform="translate(4.17871 0.280029)"/>
</clipPath>
</defs>
</svg>
