<svg width="25" height="25" viewBox="0 0 25 25" fill="none" xmlns="http://www.w3.org/2000/svg">
<g clip-path="url(#clip0_3179_2473)">
<path d="M15.1792 3C15.1792 4.5 13.6792 9 13.6792 9H11.6792C11.6792 9 10.1792 4.5 10.1792 3C10.1792 2.33696 10.4426 1.70107 10.9114 1.23223C11.3803 0.763392 12.0162 0.5 12.6792 0.5C13.3422 0.5 13.9781 0.763392 14.447 1.23223C14.9158 1.70107 15.1792 2.33696 15.1792 3ZM12.6792 10.5C11.5792 10.5 10.6792 11.4 10.6792 12.5C10.6792 13.6 11.5792 14.5 12.6792 14.5C13.7792 14.5 14.6792 13.6 14.6792 12.5C14.6792 11.4 13.7792 10.5 12.6792 10.5ZM16.7592 5.61C16.9392 4.86 17.0892 4.14 17.1492 3.55C18.8118 4.3803 20.2101 5.65765 21.1869 7.23863C22.1637 8.8196 22.6805 10.6416 22.6792 12.5C22.6792 18.02 18.1992 22.5 12.6792 22.5C7.1592 22.5 2.6792 18.02 2.6792 12.5C2.6792 8.58 4.9292 5.19 8.2092 3.55C8.2792 4.14 8.4192 4.87 8.5992 5.61C7.4054 6.32102 6.41659 7.32971 5.72947 8.53742C5.04236 9.74513 4.68047 11.1105 4.6792 12.5C4.6792 16.92 8.2592 20.5 12.6792 20.5C17.0992 20.5 20.6792 16.92 20.6792 12.5C20.6792 9.57 19.0992 7.01 16.7592 5.61ZM18.6792 12.5C18.6792 15.81 15.9892 18.5 12.6792 18.5C9.3692 18.5 6.6792 15.81 6.6792 12.5C6.6792 10.5 7.6592 8.73 9.1592 7.64C9.3892 8.45 9.8092 9.71 9.8092 9.71C9.1092 10.43 8.6792 11.42 8.6792 12.5C8.6792 14.71 10.4692 16.5 12.6792 16.5C14.8892 16.5 16.6792 14.71 16.6792 12.5C16.6792 11.42 16.2492 10.43 15.5492 9.71C15.5492 9.71 15.9592 8.49 16.1992 7.64C16.9674 8.1963 17.5927 8.92685 18.0238 9.77168C18.4549 10.6165 18.6795 11.5515 18.6792 12.5Z" fill="#5E6278"/>
</g>
<defs>
<clipPath id="clip0_3179_2473">
<rect width="24" height="24" fill="white" transform="translate(0.679199 0.5)"/>
</clipPath>
</defs>
</svg>
