<svg width="24" height="24" viewBox="0 0 24 24" fill="none" xmlns="http://www.w3.org/2000/svg">
<path d="M18.3199 5.67993C17.9599 6.03993 17.9299 6.59993 18.2499 6.99993C19.6999 8.81993 20.4599 11.3099 19.7799 13.9199C18.9899 16.9699 16.5999 19.2499 13.5699 19.8599C8.4699 20.8699 3.9999 16.9299 3.9999 11.9999C3.9999 7.91993 7.0499 4.55993 10.9999 4.06993V6.08993C9.44551 6.35214 8.05682 7.21573 7.13422 8.4939C6.21162 9.77206 5.82928 11.362 6.0699 12.9199C6.4599 15.5299 8.6299 17.6299 11.2499 17.9499C12.3935 18.0934 13.5541 17.9044 14.5932 17.4057C15.6322 16.9069 16.5056 16.1195 17.1089 15.1375C17.7122 14.1555 18.02 13.0205 17.9953 11.8683C17.9707 10.716 17.6147 9.59522 16.9699 8.63993C16.6299 8.13993 15.8999 8.10993 15.4699 8.52993L15.4599 8.53993C15.1199 8.87993 15.0899 9.40993 15.3499 9.80993C15.9499 10.7299 16.1899 11.9099 15.8399 13.1299C15.6407 13.8115 15.2631 14.4275 14.7463 14.9145C14.2295 15.4014 13.5921 15.7416 12.8999 15.8999C12.3133 16.0354 11.7038 16.0367 11.1166 15.9038C10.5295 15.7708 9.97993 15.5071 9.50892 15.1322C9.0379 14.7573 8.65757 14.2809 8.39629 13.7386C8.13501 13.1962 7.99951 12.6019 7.9999 11.9999C7.9999 10.1399 9.2799 8.58993 10.9999 8.13993V10.2799C10.3999 10.6299 9.9999 11.2599 9.9999 11.9999C9.9999 13.0999 10.8999 13.9999 11.9999 13.9999C13.0999 13.9999 13.9999 13.0999 13.9999 11.9999C13.9999 11.2599 13.5999 10.6199 12.9999 10.2799V2.70993C12.9999 2.31993 12.6799 1.99993 12.2899 1.99993C6.9299 1.79993 2.3099 6.05993 2.0199 11.3999C1.6599 17.9499 7.4299 23.2199 14.0299 21.7999C17.9099 20.9699 20.9099 17.9999 21.7799 14.1299C22.4899 10.9699 21.5799 7.96993 19.8099 5.75993C19.7219 5.64995 19.6116 5.5598 19.4863 5.49541C19.361 5.43102 19.2235 5.39383 19.0828 5.38627C18.9421 5.37872 18.8015 5.40098 18.67 5.45158C18.5385 5.50219 18.4192 5.58 18.3199 5.67993Z" fill="#0075FF"/>
</svg>
