<svg width="25" height="24" viewBox="0 0 25 24" fill="none" xmlns="http://www.w3.org/2000/svg">
<g clip-path="url(#clip0_3179_2481)">
<path d="M22.6792 3H2.6792C1.5892 3.04 0.719199 3.91 0.679199 5V19C0.719199 20.09 1.5892 20.96 2.6792 21H22.6792C23.7692 20.96 24.6392 20.09 24.6792 19V5C24.6608 4.47543 24.4442 3.97734 24.073 3.60619C23.7019 3.23503 23.2038 3.01841 22.6792 3ZM22.6792 19H2.6792V5H22.6792V19ZM14.6792 17V15.75C14.6792 14.09 11.3392 13.25 9.6792 13.25C8.0192 13.25 4.6792 14.09 4.6792 15.75V17H14.6792ZM9.6792 7C9.01616 7 8.38027 7.26339 7.91143 7.73223C7.44259 8.20107 7.1792 8.83696 7.1792 9.5C7.1792 9.8283 7.24386 10.1534 7.3695 10.4567C7.49514 10.76 7.67929 11.0356 7.91143 11.2678C8.38027 11.7366 9.01616 12 9.6792 12C10.0075 12 10.3326 11.9353 10.6359 11.8097C10.9392 11.6841 11.2148 11.4999 11.447 11.2678C11.6791 11.0356 11.8633 10.76 11.9889 10.4567C12.1145 10.1534 12.1792 9.8283 12.1792 9.5C12.1792 9.1717 12.1145 8.84661 11.9889 8.54329C11.8633 8.23998 11.6791 7.96438 11.447 7.73223C11.2148 7.50009 10.9392 7.31594 10.6359 7.1903C10.3326 7.06466 10.0075 7 9.6792 7ZM14.6792 7V8H20.6792V7H14.6792ZM14.6792 9V10H20.6792V9H14.6792ZM14.6792 11V12H18.6792V11H14.6792Z" fill="#5E6278"/>
</g>
<defs>
<clipPath id="clip0_3179_2481">
<rect width="24" height="24" fill="white" transform="translate(0.679199)"/>
</clipPath>
</defs>
</svg>
