<svg width="22" height="20" viewBox="0 0 22 20" fill="none" xmlns="http://www.w3.org/2000/svg">
<g clip-path="url(#clip0_3382_2815)">
<path d="M20.3584 13.7276C20.8115 13.7276 21.1787 13.3799 21.1787 12.951V4.71943C21.1787 3.00665 19.7067 1.61318 17.8975 1.61318H16.8311V0.836621C16.8311 0.407726 16.4638 0.0600586 16.0107 0.0600586C15.5577 0.0600586 15.1904 0.407726 15.1904 0.836621V1.61318H11.458V0.836621C11.458 0.407726 11.0908 0.0600586 10.6377 0.0600586C10.1846 0.0600586 9.81738 0.407726 9.81738 0.836621V1.61318H6.12598V0.836621C6.12598 0.407726 5.75872 0.0600586 5.30566 0.0600586C4.85261 0.0600586 4.48535 0.407726 4.48535 0.836621V1.61318H3.45996C1.65068 1.61318 0.178711 3.00665 0.178711 4.71943V16.8338C0.178711 18.5466 1.65068 19.9401 3.45996 19.9401H17.8975C19.7067 19.9401 21.1787 18.5466 21.1787 16.8338C21.1787 16.4049 20.8115 16.0572 20.3584 16.0572C19.9053 16.0572 19.5381 16.4049 19.5381 16.8338C19.5381 17.6902 18.8021 18.3869 17.8975 18.3869H3.45996C2.55532 18.3869 1.81934 17.6902 1.81934 16.8338V4.71943C1.81934 3.86304 2.55532 3.16631 3.45996 3.16631H4.48535V3.94287C4.48535 4.37177 4.85261 4.71943 5.30566 4.71943C5.75872 4.71943 6.12598 4.37177 6.12598 3.94287V3.16631H9.81738V3.94287C9.81738 4.37177 10.1846 4.71943 10.6377 4.71943C11.0908 4.71943 11.458 4.37177 11.458 3.94287V3.16631H15.1904V3.94287C15.1904 4.37177 15.5577 4.71943 16.0107 4.71943C16.4638 4.71943 16.8311 4.37177 16.8311 3.94287V3.16631H17.8975C18.8021 3.16631 19.5381 3.86304 19.5381 4.71943V12.951C19.5381 13.3799 19.9053 13.7276 20.3584 13.7276Z" fill="#5E6278"/>
<path d="M10.6377 15.2418C11.0908 15.2418 11.458 14.8942 11.458 14.4653V12.3297H13.7139C14.1669 12.3297 14.5342 11.9821 14.5342 11.5532C14.5342 11.1243 14.1669 10.7766 13.7139 10.7766H11.458V8.64106C11.458 8.21217 11.0908 7.8645 10.6377 7.8645C10.1846 7.8645 9.81738 8.21217 9.81738 8.64106V10.7766H7.56152C7.10846 10.7766 6.74121 11.1243 6.74121 11.5532C6.74121 11.9821 7.10846 12.3297 7.56152 12.3297H9.81738V14.4653C9.81738 14.8942 10.1846 15.2418 10.6377 15.2418Z" fill="#5E6278"/>
</g>
<defs>
<clipPath id="clip0_3382_2815">
<rect width="21" height="19.88" fill="white" transform="translate(0.178711 0.0600586)"/>
</clipPath>
</defs>
</svg>
